  0
SECTION
  2
HEADER
  9
$ACADVER
  1
AC1009
  9
$INSBASE
 10
0.0
 20
0.0
 30
0.0
  9
$EXTMIN
 10
0.0
 20
0.0
 30
0.0
  9
$EXTMAX
 10
0.0
 20
0.0
 30
0.0
  0
ENDSEC
  0
SECTION
  2
TABLES
  0
TABLE
  2
VPORT
 70
0
  0
ENDTAB
  0
TABLE
  2
LTYPE
 70
1
  0
LTYPE
  2
CONTINUOUS
 70
0
  3
Solid line
 72
65
 73
0
 40
0.0
  0
ENDTAB
  0
TABLE
  2
LAYER
 70
1
  0
LAYER
  2
0
 70
64
 62
7
  6
continuous
  0
ENDTAB
  0
TABLE
  2
STYLE
 70
1
  0
STYLE
  2
STANDARD
 70
0
 40
0
 41
1.0
 50
0.0
 71
0
 42
1
 3
ARIAL.TTF
 4

  0
ENDTAB
  0
TABLE
  2
VIEW
 70
0
  0
ENDTAB
  0
ENDSEC
  0
SECTION
  2
BLOCKS
  0
BLOCK
  8
0
  2
PART__FEATURE
 70
0
 10
0.0
 20
0.0
 30
0.0
  3
PART__FEATURE
  0
ARC
  8
0
 62
0
 10
36.084
 20
13.192
 30
0.0
 40
1.0
 50
-90.0
 51
0.0
  0
LINE
  8
0
 62
0
 10
36.084
 20
12.192
 30
0.0
 11
12.684
 21
12.192
 31
0.0
  0
ARC
  8
0
 62
0
 10
12.684
 20
13.192
 30
0.0
 40
1.0
 50
-180.0
 51
-90.0
  0
LINE
  8
0
 62
0
 10
11.684
 20
13.192
 30
0.0
 11
11.684
 21
26.192
 31
0.0
  0
ARC
  8
0
 62
0
 10
12.684
 20
26.192
 30
0.0
 40
1.0
 50
90.0
 51
-180.0
  0
LINE
  8
0
 62
0
 10
12.684
 20
27.192
 30
0.0
 11
36.084
 21
27.192
 31
0.0
  0
ARC
  8
0
 62
0
 10
36.084
 20
26.192
 30
0.0
 40
1.0
 50
-0.0
 51
90.0
  0
LINE
  8
0
 62
0
 10
37.084
 20
26.192
 30
0.0
 11
37.084
 21
13.192
 31
0.0
  0
CIRCLE
  8
0
 62
0
 10
51.4985
 20
20.192
 30
0.0
 40
4.1
  0
CIRCLE
  8
0
 62
0
 10
3.57886
 20
36.12007
 30
0.0
 40
1.75
  0
CIRCLE
  8
0
 62
0
 10
3.57886
 20
3.75793
 30
0.0
 40
1.75
  0
CIRCLE
  8
0
 62
0
 10
62.84214
 20
36.12007
 30
0.0
 40
1.75
  0
CIRCLE
  8
0
 62
0
 10
62.84214
 20
3.75793
 30
0.0
 40
1.75
  0
ARC
  8
0
 62
0
 10
3.9624
 20
3.9624
 30
0.0
 40
3.9624
 50
-180.0
 51
-90.0
  0
LINE
  8
0
 62
0
 10
1.06581410364e-13
 20
35.9156
 30
0.0
 11
-3.28166136572e-28
 21
3.9624
 31
0.0
  0
ARC
  8
0
 62
0
 10
3.9624
 20
35.9156
 30
0.0
 40
3.9624
 50
90.0
 51
-180.0
  0
LINE
  8
0
 62
0
 10
62.4586
 20
39.878
 30
0.0
 11
3.9624
 21
39.878
 31
0.0
  0
ARC
  8
0
 62
0
 10
62.4586
 20
35.9156
 30
0.0
 40
3.9624
 50
0.0
 51
90.0
  0
LINE
  8
0
 62
0
 10
66.421
 20
3.9624
 30
0.0
 11
66.421
 21
35.9156
 31
0.0
  0
ARC
  8
0
 62
0
 10
62.4586
 20
3.9624
 30
0.0
 40
3.9624
 50
-90.0
 51
-0.0
  0
LINE
  8
0
 62
0
 10
3.9624
 20
0.0
 30
0.0
 11
62.4586
 21
0.0
 31
0.0
  0
ENDBLK
  0
BLOCK
  8
0
  2
PART__FEATURE001
 70
0
 10
0.0
 20
0.0
 30
0.0
  3
PART__FEATURE001
  0
ARC
  8
0
 62
0
 10
121.941847298
 20
18.5703703704
 30
0.0
 40
6.9
 50
111.278040459
 51
68.7219595411
  0
LINE
  8
0
 62
0
 10
119.437877884
 20
25.0
 30
0.0
 11
124.445816712
 21
25.0
 31
0.0
  0
LINE
  8
0
 62
0
 10
87.020847298
 20
20.4
 30
0.0
 11
87.020847298
 21
16.8
 31
0.0
  0
ARC
  8
0
 62
0
 10
86.020847298
 20
16.8
 30
0.0
 40
1.0
 50
-90.0
 51
0.0
  0
LINE
  8
0
 62
0
 10
86.020847298
 20
15.8
 30
0.0
 11
78.520847298
 21
15.8
 31
0.0
  0
ARC
  8
0
 62
0
 10
78.520847298
 20
16.8
 30
0.0
 40
1.0
 50
-180.0
 51
-90.0
  0
LINE
  8
0
 62
0
 10
77.520847298
 20
16.8
 30
0.0
 11
77.520847298
 21
20.4
 31
0.0
  0
ARC
  8
0
 62
0
 10
78.520847298
 20
20.4
 30
0.0
 40
1.0
 50
90.0
 51
180.0
  0
LINE
  8
0
 62
0
 10
78.520847298
 20
21.4
 30
0.0
 11
86.020847298
 21
21.4
 31
0.0
  0
ARC
  8
0
 62
0
 10
86.020847298
 20
20.4
 30
0.0
 40
1.0
 50
0.0
 51
90.0
  0
CIRCLE
  8
0
 62
0
 10
108.720847298
 20
16.2
 30
0.0
 40
2.5
  0
CIRCLE
  8
0
 62
0
 10
71.499707298
 20
3.75793
 30
0.0
 40
1.75
  0
CIRCLE
  8
0
 62
0
 10
71.499707298
 20
36.12007
 30
0.0
 40
1.75
  0
CIRCLE
  8
0
 62
0
 10
130.762987298
 20
36.12007
 30
0.0
 40
1.75
  0
CIRCLE
  8
0
 62
0
 10
130.762987298
 20
3.75793
 30
0.0
 40
1.75
  0
LINE
  8
0
 62
0
 10
71.883247298
 20
0.0
 30
0.0
 11
130.379447298
 21
0.0
 31
0.0
  0
ARC
  8
0
 62
0
 10
71.883247298
 20
3.9624
 30
0.0
 40
3.9624
 50
-180.0
 51
-90.0
  0
LINE
  8
0
 62
0
 10
67.920847298
 20
35.9156
 30
0.0
 11
67.920847298
 21
3.9624
 31
0.0
  0
ARC
  8
0
 62
0
 10
71.883247298
 20
35.9156
 30
0.0
 40
3.9624
 50
90.0
 51
180.0
  0
LINE
  8
0
 62
0
 10
130.379447298
 20
39.878
 30
0.0
 11
71.883247298
 21
39.878
 31
0.0
  0
ARC
  8
0
 62
0
 10
130.379447298
 20
35.9156
 30
0.0
 40
3.9624
 50
-0.0
 51
90.0
  0
LINE
  8
0
 62
0
 10
134.341847298
 20
3.9624
 30
0.0
 11
134.341847298
 21
35.9156
 31
0.0
  0
ARC
  8
0
 62
0
 10
130.379447298
 20
3.9624
 30
0.0
 40
3.9624
 50
-90.0
 51
0.0
  0
ENDBLK
  0
ENDSEC
  0
SECTION
  2
ENTITIES
  0
INSERT
  2
PART__FEATURE
  8
0
 62
0
 10
0.0
 20
0.0
 30
0.0
  0
INSERT
  2
PART__FEATURE001
  8
0
 62
0
 10
0.0
 20
0.0
 30
0.0
  0
ENDSEC
  0
EOF
